<?xml version="1.0" standalone="no"?>
<!DOCTYPE svg PUBLIC "-//W3C//DTD SVG 20010904//EN"
 "http://www.w3.org/TR/2001/REC-SVG-20010904/DTD/svg10.dtd">
<svg version="1.0" xmlns="http://www.w3.org/2000/svg"
 width="28px" height="28px" viewBox="0 0 256 256"
 preserveAspectRatio="xMidYMid meet">
<g transform="translate(0,256) scale(0.1,-0.1)"
fill="#000000" stroke="none">
<circle cx="1350" cy="1250" r="1250" fill="#ff0000" />
<path d="M2160 2116 c0 -42 -3 -47 -82 -122 -154 -144 -271 -221 -419 -272
l-87 -31 -23 25 c-12 13 -39 29 -58 35 -23 6 -178 9 -433 7 -382 -3 -398 -4
-424 -24 -15 -11 -37 -33 -48 -48 -20 -26 -21 -40 -21 -326 0 -286 1 -300 21
-326 39 -53 70 -68 144 -72 l69 -4 3 -228 c3 -213 4 -231 24 -256 47 -64 63
-69 214 -69 151 0 167 5 214 69 20 25 21 43 24 257 l3 229 94 0 c103 0 137 9
176 46 l25 24 70 -24 c148 -50 260 -122 415 -265 97 -90 99 -93 99 -137 l0
-44 80 0 80 0 0 800 0 800 -80 0 -80 0 0 -44z m-720 -596 l0 -80 -360 0 -360
0 0 80 0 80 360 0 360 0 0 -80z"/>
<path d="M335 1586 c-41 -18 -83 -69 -91 -110 -3 -19 -4 -84 -2 -144 2 -93 6
-115 24 -138 39 -53 70 -68 144 -72 l70 -4 0 241 0 241 -57 0 c-32 -1 -72 -7
-88 -14z"/>
</g>
</svg>

